<?xml version="1.0" encoding="UTF-8"?>
<svg id="Calque_1" data-name="Calque 1" xmlns="http://www.w3.org/2000/svg" version="1.1" viewBox="0 0 640 512">
  <defs>
    <style>
      .cls-1 {
        fill: #000;
        stroke-width: 0px;
      }
    </style>
  </defs>
  <path class="cls-1" d="M277.6,445.8c-12.4,0-24.8-4.4-34.7-13.4l-86.2-78.7h-43c-2.6,17.4-17.7,30.7-35.8,30.7h-30.7c-20,0-36.2-16.2-36.2-36.2v-199.8c0-11.5,9.3-20.8,20.8-20.8h82.3v215.2h46.8l89.4,81.5c16.5,15.1,42.3,13.9,57.4-2.6,4.5-5,7.8-11,9.4-17.5l2.3-8.8,23,21.1c8,7.3,18.4,11.1,29.2,10.7,10.9-.5,20.9-5.1,28.2-13.1,3.6-4,6.5-8.8,8.4-14l2.3-6.6,5.8,3.9c16.8,11.3,38.9,8.6,52.6-6.4,15.2-16.5,14.1-42.3-2.5-57.4l-148.2-136.4-42.2,32.8c-9.2,7.2-20.7,10.3-32.3,8.6-11.6-1.6-21.7-7.8-28.6-17.2-13.4-18.4-10.1-44.1,7.7-58.4l93-75.3c17.3-13.9,39-21.6,61.1-21.6s36.7,5.3,52.3,15.3l69.7,44.7-5.9,9.2-69.7-44.7c-13.8-8.9-29.9-13.5-46.4-13.5s-38.9,6.8-54.2,19.2l-93,75.3c-13.3,10.7-15.8,29.8-5.8,43.6,5.1,7.1,12.7,11.6,21.3,12.8,8.6,1.2,17.2-1.1,24.1-6.4l73.5-57.1,6.7,8.6-22.6,17.6,146.8,135.1c20.9,19.2,22.3,51.9,3.1,72.8-15.9,17.3-40.7,21.6-61.1,11.3-2.2,4.3-4.9,8.3-8.1,11.7-9.3,10.1-22,16-35.8,16.6-13.8.6-26.9-4.2-37.1-13.5l-10.3-9.4c-2.2,5-5.3,9.7-9,13.8-10.2,11.1-24.1,16.8-38.1,16.8ZM31.8,138.5c-5.5,0-9.9,4.5-9.9,9.9v199.8c0,13.9,11.3,25.3,25.3,25.3h30.7c13.9,0,25.3-11.3,25.3-25.3v-209.7H31.8ZM592.8,384.4h-30.7c-20,0-36.2-16.2-36.2-36.2V127.6h82.3c11.5,0,20.8,9.3,20.8,20.8v199.8c0,20-16.2,36.2-36.2,36.2ZM536.8,138.5v209.7c0,13.9,11.3,25.3,25.3,25.3h30.7c13.9,0,25.3-11.3,25.3-25.3v-199.8c0-5.5-4.5-9.9-9.9-9.9h-71.4ZM134.7,137.6l-6-9.1,69.2-46.1c16.1-10.7,34.7-16.3,53.8-16.2,13,0,25.6,2.5,37.4,7.5l-4.2,10c-10.5-4.4-21.7-6.7-33.2-6.7-16.9,0-33.4,4.9-47.7,14.4l-69.1,46.1Z"/>
  <rect class="cls-1" x="482.5" y="342.8" width="48.8" height="10.9"/>
</svg>