<?xml version="1.0" encoding="UTF-8"?>
<svg id="Calque_1" data-name="Calque 1" xmlns="http://www.w3.org/2000/svg" version="1.1" viewBox="0 0 640 512">
  <defs>
    <style>
      .cls-1 {
        fill: #000;
        stroke-width: 0px;
      }
    </style>
  </defs>
  <path class="cls-1" d="M574,500h-268.5c-27.6,0-50-22.4-50-50s9.1-20.2,20.2-20.2h24.5v-143.9c0-19.4,15.8-35.1,35.1-35.1h208.8c19.4,0,35.1,15.8,35.1,35.1v143.9h24.5c11.1,0,20.2,9.1,20.2,20.2,0,27.6-22.4,50-50,50ZM275.7,440.3c-5.3,0-9.6,4.3-9.6,9.6,0,21.8,17.7,39.5,39.5,39.5h268.5c21.8,0,39.5-17.7,39.5-39.5s-4.3-9.6-9.6-9.6h-29.8c-2.9,0-5.3-2.4-5.3-5.3v-149.2c0-13.5-11-24.5-24.5-24.5h-208.8c-13.5,0-24.5,11-24.5,24.5v149.2c0,2.9-2.4,5.3-5.3,5.3h-29.8ZM275.7,410.5H126.5c-27.6,0-50-22.4-50-50v-190.3l-41.2,38-7.2-7.8L222,21.4c13.4-12.3,34.3-12.3,47.6,0l193.9,179-7.2,7.8L262.5,29.1c-9.3-8.6-23.9-8.6-33.3,0L86.5,160.8h.5v199.6c0,21.8,17.7,39.5,39.5,39.5h149.2v10.6ZM275.7,291.1h-59.7c-11.1,0-20.2-9.1-20.2-20.2v-59.7c0-11.1,9.1-20.2,20.2-20.2h59.7c11.1,0,20.2,9.1,20.2,20.2v20h-10.6v-20c0-5.3-4.3-9.6-9.6-9.6h-59.7c-5.3,0-9.6,4.3-9.6,9.6v59.7c0,5.3,4.3,9.6,9.6,9.6h59.7v10.6Z"/>
  <rect class="cls-1" x="305.5" y="429.7" width="268.5" height="10.6"/>
  <rect class="cls-1" x="403.9" y="160.8" width="10.6" height="69.6"/>
</svg>